<svg width="57" height="60" viewBox="0 0 57 60" fill="none" xmlns="http://www.w3.org/2000/svg">
<path d="M1 15.74V43.83L28.05 57.87L55.1 43.83V15.74L28.05 1.69L1 15.74Z" fill="#0C1621" stroke="#75C69C" stroke-width="3" stroke-miterlimit="10"/>
<path d="M33.99 14.59V37.855C33.99 39.175 33.765 40.375 33.315 41.455C32.895 42.535 32.28 43.45 31.47 44.2C30.69 44.95 29.745 45.535 28.635 45.955C27.525 46.345 26.31 46.54 24.99 46.54C22.56 46.54 20.595 45.895 19.095 44.605C17.625 43.285 16.68 41.545 16.26 39.385L19.68 38.575C19.98 39.925 20.55 41.035 21.39 41.905C22.23 42.745 23.46 43.165 25.08 43.165C26.7 43.165 27.96 42.67 28.86 41.68C29.76 40.69 30.21 39.19 30.21 37.18V17.92H19.41V14.59H33.99Z" fill="#75C69C"/>
</svg>
